<svg width="93" height="92" viewBox="0 0 93 92" fill="none" xmlns="http://www.w3.org/2000/svg">
<path fill-rule="evenodd" clip-rule="evenodd" d="M66.8928 60.9716C70.9295 55.7787 73.3333 49.2534 73.3333 42.1667C73.3333 25.2299 59.6034 11.5 42.6667 11.5C25.7299 11.5 12 25.2299 12 42.1667C12 59.1034 25.7299 72.8333 42.6667 72.8333C49.7534 72.8333 56.2787 70.4295 61.4716 66.3928L78.2894 83.2106C79.7864 84.7076 82.2136 84.7076 83.7106 83.2106C85.2076 81.7136 85.2076 79.2864 83.7106 77.7894L66.8928 60.9716ZM42.6667 65.1667C29.9641 65.1667 19.6667 54.8692 19.6667 42.1667C19.6667 29.4641 29.9641 19.1667 42.6667 19.1667C55.3692 19.1667 65.6667 29.4641 65.6667 42.1667C65.6667 54.8692 55.3692 65.1667 42.6667 65.1667Z" fill="#293666"/>
</svg>
